{
  "title": "DISNEYS PIXARS-A BUGS LIFE[1998] IN H.264 BY STIG",
  "uid": 5050361,
  "size": 838930359,
  "categoryP": "video",
  "categoryS": "movies",
  "magnet": "?xt=urn:btih:03b5f2072450c585cd94832f6cbac79343ad827e&amp;dn=DISNEYS+PIXARS-A+BUGS+LIFE%5B1998%5D+IN+H.264+BY+STIG&amp;tr=udp%3A%2F%2Ftracker.openbittorrent.com%3A80&amp;tr=udp%3A%2F%2Fopen.demonii.com%3A1337&amp;tr=udp%3A%2F%2Ftracker.coppersurfer.tk%3A6969&amp;tr=udp%3A%2F%2Fexodus.desync.com%3A6969",
  "seeders": 46,
  "leechers": 6,
  "uploader": "alanwatson",
  "files": 4,
  "time": 1250122106,
  "description": "IMDB &lt;a href=&quot;\nhttp://www.imdb.com/title/tt0120623/&quot; rel=&quot;nofollow&quot; target=&quot;_NEW&quot;&gt;\nhttp://www.imdb.com/title/tt0120623/&lt;/a&gt;\n\nJourney inside the miniature world of bugs for larger-than-life fun and adventure under every leaf! Crawling with imaginative characters, hilarious laughs and colourful, lifelike computer animation, Disney and Pixor's &quot;A Bug's Life&quot; is a masterpiece, terrific entertainment for all ages. (The Daily Mail).\n\nOn behalf of &quot;oppressed bugs everywhere&quot;, an inventive ant named Flik hires &quot;warrior bugs&quot; to defend his colony from a horde of greedy grasshoppers, led by Hopper. But when Flik's cavalry turns out to be a motley group of flea circus performers, the stage is set for comic confusion...as well as unlikely heroes!\n\nFeaturing a star-studded voice cast. A Bug's Life presents an amazing new perspective on teamwork and determination! Plus, this DVD edition has been created directly from Pixar's digital source\n\nFormat : MPEG-4\nFormat profile : Base Media / Version 2\nCodec ID : mp42\nFile size : 799 MiB\nDuration : 1h 31mn\nOverall bit rate : 1 228 Kbps\nEncoded date : UTC 2009-08-07 06:54:14\nTagged date : UTC 2009-08-07 10:52:08\nWriting application : HandBrake 0.9.3 2008112300\n\nVideo\nID : 1\nFormat : AVC\nFormat/Info : Advanced Video Codec\nFormat profile : &lt;a class=&quot;__cf_email__&quot; href=&quot;/cdn-cgi/l/email-protection&quot; data-cfemail=&quot;d19cb0b8bf919de5ffe1&quot;&gt;[email&amp;#160;protected]&lt;/a&gt;&lt;script cf-hash='f9e31' type=&quot;text/javascript&quot;&gt;\n/* &lt;![CDATA[ */!function(){try{var t=&quot;currentScript&quot;in document?document.currentScript:function(){for(var t=document.getElementsByTagName(&quot;script&quot;),e=t.length;e--;)if(t[e].getAttribute(&quot;cf-hash&quot;))return t[e]}();if(t&amp;&amp;t.previousSibling){var e,r,n,i,c=t.previousSibling,a=c.getAttribute(&quot;data-cfemail&quot;);if(a){for(e=&quot;&quot;,r=parseInt(a.substr(0,2),16),n=2;a.length-n;n+=2)i=parseInt(a.substr(n,2),16)^r,e+=String.fromCharCode(i);e=document.createTextNode(e),c.parentNode.replaceChild(e,c)}}}catch(u){}}();/* ]]&gt; */&lt;/script&gt;\nFormat settings, CABAC : Yes\nFormat settings, ReFrames : 3 frames\nCodec ID : avc1\nCodec ID/Info : Advanced Video Coding\nDuration : 1h 31mn\nBit rate mode : Variable\nBit rate : 1 064 Kbps\nWidth : 720 pixels\nHeight : 576 pixels\nDisplay aspect ratio : 4/3\nFrame rate mode : Variable\nFrame rate : 25.000 fps\nMinimum frame rate : 12.500 fps\nMaximum frame rate : 25.000 fps\nStandard : PAL\nResolution : 24 bits\nColorimetry : 4:2:0\nScan type : Progressive\nBits/(Pixel*Frame) : 0.103\nStream size : 693 MiB (87%)\nWriting library : x264 core 65\n\nAudio\nID : 2\nFormat : AAC\nFormat/Info : Advanced Audio Codec\nFormat version : Version 4\nFormat profile : LC\nFormat settings, SBR : No\nCodec ID : 40\nDuration : 1h 31mn\nBit rate mode : Variable\nBit rate : 160 Kbps\nMaximum bit rate : 203 Kbps\nChannel(s) : 2 channels\nChannel positions : L R\nSampling rate : 48.0 KHz\nResolution : 16 bits\nStream size : 104 MiB (13%)\nLanguage : English\nEncoded date : UTC 2009-08-07 06:54:15\nTagged date : UTC 2009-08-07 10:52:07\n",
  "parsed": {
    "xt": "urn:btih:03b5f2072450c585cd94832f6cbac79343ad827e",
    "dn": "DISNEYS PIXARS-A BUGS LIFE[1998] IN H.264 BY STIG",
    "tr": [
      "udp://exodus.desync.com:6969",
      "udp://open.demonii.com:1337",
      "udp://tracker.coppersurfer.tk:6969",
      "udp://tracker.openbittorrent.com:80"
    ],
    "infoHash": "03b5f2072450c585cd94832f6cbac79343ad827e",
    "infoHashBuffer": {
      "type": "Buffer",
      "data": [
        3,
        181,
        242,
        7,
        36,
        80,
        197,
        133,
        205,
        148,
        131,
        47,
        108,
        186,
        199,
        147,
        67,
        173,
        130,
        126
      ]
    },
    "name": "DISNEYS PIXARS-A BUGS LIFE[1998] IN H.264 BY STIG",
    "announce": [
      "udp://exodus.desync.com:6969",
      "udp://open.demonii.com:1337",
      "udp://tracker.coppersurfer.tk:6969",
      "udp://tracker.openbittorrent.com:80"
    ],
    "urlList": []
  },
  "previous": 52,
  "peers": 115,
  "last_updated": "2016-12-24T15:43:56.961Z"
}